<?xml version="1.0" standalone="no"?>
<!DOCTYPE svg PUBLIC "-//W3C//DTD SVG 20010904//EN"
 "http://www.w3.org/TR/2001/REC-SVG-20010904/DTD/svg10.dtd">
<svg version="1.0" xmlns="http://www.w3.org/2000/svg"
 width="463.000000pt" height="453.000000pt" viewBox="0 0 463.000000 453.000000"
 preserveAspectRatio="xMidYMid meet">
<metadata>
Created by potrace 1.16, written by Peter Selinger 2001-2019
</metadata>
<g transform="translate(0.000000,453.000000) scale(0.100000,-0.100000)"
fill="#000000" stroke="none">
<path d="M1630 3800 l0 -360 150 0 150 0 0 210 0 210 1007 0 c553 0 1004 -2
1002 -4 -4 -4 -469 -158 -1071 -356 l-248 -81 0 -1154 0 -1154 663 -219 662
-220 -1007 -1 -1008 -1 0 210 0 210 -150 0 -150 0 0 -360 0 -360 1315 0 1315
0 0 1895 0 1895 -1315 0 -1315 0 0 -360z m1234 -1421 c26 -12 56 -72 56 -114
0 -40 -29 -101 -54 -115 -67 -35 -122 89 -82 184 8 19 22 39 33 45 22 13 18
13 47 0z"/>
<path d="M1400 2877 l0 -257 -540 0 -540 0 0 -355 0 -355 540 0 540 0 2 -254
3 -254 445 400 c245 220 460 413 478 429 17 15 32 31 32 33 0 3 -199 184 -442
402 -244 218 -460 413 -480 432 l-38 36 0 -257z"/>
</g>
</svg>
