<?xml version="1.0" encoding="utf-8"?>
<!-- Generator: Adobe Illustrator 16.0.0, SVG Export Plug-In . SVG Version: 6.00 Build 0)  -->
<!DOCTYPE svg PUBLIC "-//W3C//DTD SVG 1.1//EN" "http://www.w3.org/Graphics/SVG/1.1/DTD/svg11.dtd">
<svg version="1.1" id="Layer_1" xmlns="http://www.w3.org/2000/svg" xmlns:xlink="http://www.w3.org/1999/xlink" x="0px" y="0px"
	 width="466.275px" height="118.668px" viewBox="0 0 466.275 118.668" enable-background="new 0 0 466.275 118.668"
	 xml:space="preserve">
<g>
	<g>
		<defs>
			<polyline id="SVGID_1_" points="0,118.668 0,0 466.275,0 466.275,118.668 			"/>
		</defs>
		<clipPath id="SVGID_2_">
			<use xlink:href="#SVGID_1_"  overflow="visible"/>
		</clipPath>
		<path clip-path="url(#SVGID_2_)" fill="#009FE3" d="M281.526,75.178V57.68c0-1.254,1.517-1.883,2.403-0.997l8.754,8.746
			c0.551,0.552,0.551,1.442,0.002,1.992l-8.754,8.754C283.043,77.063,281.526,76.431,281.526,75.178"/>
	</g>
	<g>
		<defs>
			<polyline id="SVGID_3_" points="0,118.668 0,0 466.275,0 466.275,118.668 			"/>
		</defs>
		<clipPath id="SVGID_4_">
			<use xlink:href="#SVGID_3_"  overflow="visible"/>
		</clipPath>
	</g>
	<g>
		<defs>
			<polyline id="SVGID_5_" points="0,118.668 0,0 466.275,0 466.275,118.668 			"/>
		</defs>
		<clipPath id="SVGID_6_">
			<use xlink:href="#SVGID_5_"  overflow="visible"/>
		</clipPath>
	</g>
	<g>
		<defs>
			<polyline id="SVGID_7_" points="0,118.668 0,0 466.275,0 466.275,118.668 			"/>
		</defs>
		<clipPath id="SVGID_8_">
			<use xlink:href="#SVGID_7_"  overflow="visible"/>
		</clipPath>
	</g>
	<g>
		<defs>
			<polyline id="SVGID_9_" points="0,118.668 0,0 466.275,0 466.275,118.668 			"/>
		</defs>
		<clipPath id="SVGID_10_">
			<use xlink:href="#SVGID_9_"  overflow="visible"/>
		</clipPath>
	</g>
	<g>
		<defs>
			<polyline id="SVGID_11_" points="0,118.668 0,0 466.275,0 466.275,118.668 			"/>
		</defs>
		<clipPath id="SVGID_12_">
			<use xlink:href="#SVGID_11_"  overflow="visible"/>
		</clipPath>
	</g>
	<g>
		<defs>
			<polyline id="SVGID_13_" points="0,118.668 0,0 466.275,0 466.275,118.668 			"/>
		</defs>
		<clipPath id="SVGID_14_">
			<use xlink:href="#SVGID_13_"  overflow="visible"/>
		</clipPath>
	</g>
	<g>
		<defs>
			<polyline id="SVGID_15_" points="0,118.668 0,0 466.275,0 466.275,118.668 			"/>
		</defs>
		<clipPath id="SVGID_16_">
			<use xlink:href="#SVGID_15_"  overflow="visible"/>
		</clipPath>
	</g>
	<g>
		<defs>
			<polyline id="SVGID_17_" points="0,118.668 0,0 466.275,0 466.275,118.668 			"/>
		</defs>
		<clipPath id="SVGID_18_">
			<use xlink:href="#SVGID_17_"  overflow="visible"/>
		</clipPath>
	</g>
	<g>
		<defs>
			<polyline id="SVGID_19_" points="0,118.668 0,0 466.275,0 466.275,118.668 			"/>
		</defs>
		<clipPath id="SVGID_20_">
			<use xlink:href="#SVGID_19_"  overflow="visible"/>
		</clipPath>
	</g>
	<g>
		<defs>
			<polyline id="SVGID_21_" points="0,118.668 0,0 466.275,0 466.275,118.668 			"/>
		</defs>
		<clipPath id="SVGID_22_">
			<use xlink:href="#SVGID_21_"  overflow="visible"/>
		</clipPath>
	</g>
	<g>
		<defs>
			<polyline id="SVGID_23_" points="0,118.668 0,0 466.275,0 466.275,118.668 			"/>
		</defs>
		<clipPath id="SVGID_24_">
			<use xlink:href="#SVGID_23_"  overflow="visible"/>
		</clipPath>
	</g>
	<g>
		<defs>
			<polyline id="SVGID_25_" points="0,118.668 0,0 466.275,0 466.275,118.668 			"/>
		</defs>
		<clipPath id="SVGID_26_">
			<use xlink:href="#SVGID_25_"  overflow="visible"/>
		</clipPath>
	</g>
	<g>
		<defs>
			<polyline id="SVGID_27_" points="0,118.668 0,0 466.275,0 466.275,118.668 			"/>
		</defs>
		<clipPath id="SVGID_28_">
			<use xlink:href="#SVGID_27_"  overflow="visible"/>
		</clipPath>
	</g>
	<g>
		<defs>
			<polyline id="SVGID_29_" points="0,118.668 0,0 466.275,0 466.275,118.668 			"/>
		</defs>
		<clipPath id="SVGID_30_">
			<use xlink:href="#SVGID_29_"  overflow="visible"/>
		</clipPath>
	</g>
	<g>
		<defs>
			<polyline id="SVGID_31_" points="0,118.668 0,0 466.275,0 466.275,118.668 			"/>
		</defs>
		<clipPath id="SVGID_32_">
			<use xlink:href="#SVGID_31_"  overflow="visible"/>
		</clipPath>
	</g>
	<g>
		<defs>
			<polyline id="SVGID_33_" points="0,118.668 0,0 466.275,0 466.275,118.668 			"/>
		</defs>
		<clipPath id="SVGID_34_">
			<use xlink:href="#SVGID_33_"  overflow="visible"/>
		</clipPath>
	</g>
	<g>
		<defs>
			<polyline id="SVGID_35_" points="0,118.668 0,0 466.275,0 466.275,118.668 			"/>
		</defs>
		<clipPath id="SVGID_36_">
			<use xlink:href="#SVGID_35_"  overflow="visible"/>
		</clipPath>
	</g>
	<g>
		<defs>
			<polyline id="SVGID_37_" points="0,118.668 0,0 466.275,0 466.275,118.668 			"/>
		</defs>
		<clipPath id="SVGID_38_">
			<use xlink:href="#SVGID_37_"  overflow="visible"/>
		</clipPath>
	</g>
	<g>
		<defs>
			<polyline id="SVGID_39_" points="0,118.668 0,0 466.275,0 466.275,118.668 			"/>
		</defs>
		<clipPath id="SVGID_40_">
			<use xlink:href="#SVGID_39_"  overflow="visible"/>
		</clipPath>
	</g>
	<g>
		<defs>
			<polyline id="SVGID_41_" points="0,118.668 0,0 466.275,0 466.275,118.668 			"/>
		</defs>
		<clipPath id="SVGID_42_">
			<use xlink:href="#SVGID_41_"  overflow="visible"/>
		</clipPath>
		<path clip-path="url(#SVGID_42_)" fill="#004F89" d="M111.709,76.275c-3.781,0-7.365-0.584-10.652-1.732
			c-3.312-1.164-6.245-2.907-8.729-5.189c-2.493-2.287-4.482-5.121-5.911-8.424c-1.428-3.304-2.153-7.141-2.153-11.402
			c0-4.07,0.708-7.836,2.102-11.195c1.392-3.366,3.359-6.298,5.848-8.716c2.483-2.417,5.447-4.313,8.813-5.64
			c3.363-1.326,7.091-1.997,11.082-1.997c3.521,0,6.687,0.465,9.406,1.385c2.728,0.921,5.069,2.172,6.961,3.719
			c1.903,1.56,3.365,3.409,4.342,5.499c0.975,2.088,1.468,4.342,1.468,6.702c0,2.419-0.459,4.655-1.363,6.644
			c-0.929,2.03-2.569,3.785-4.88,5.219c-2.26,1.407-5.325,2.511-9.108,3.286c-3.734,0.767-8.54,1.158-14.283,1.158
			c-1.336,0-2.588-0.014-3.751-0.048c-0.866-0.024-1.777-0.058-2.733-0.102c0.641,2.747,2.096,4.954,4.433,6.728
			c2.593,1.972,6.396,2.97,11.301,2.97c1.669,0,3.227-0.13,4.629-0.386c1.396-0.251,2.677-0.575,3.813-0.963
			c1.16-0.397,2.108-0.777,2.896-1.159c0.823-0.395,1.43-0.688,1.823-0.889l0.7-0.354l4.886,9.304l-0.624,0.392
			c-0.543,0.341-1.391,0.813-2.537,1.422c-1.179,0.622-2.646,1.209-4.36,1.747c-1.717,0.539-3.724,1.018-5.968,1.416
			C116.912,76.071,114.406,76.275,111.709,76.275 M97.537,46.078c1.221,0.044,2.401,0.066,3.534,0.066h4.177
			c3.578,0,6.502-0.228,8.69-0.68c2.16-0.443,3.853-1.014,5.03-1.698c1.104-0.64,1.828-1.35,2.153-2.11
			c0.355-0.824,0.532-1.688,0.532-2.573c0-2.244-0.869-3.877-2.656-4.994c-1.887-1.173-4.27-1.767-7.085-1.767
			c-2.325,0-4.388,0.409-6.133,1.217c-1.749,0.815-3.233,1.904-4.41,3.235c-1.188,1.342-2.122,2.914-2.784,4.677
			C98.018,42.965,97.667,44.518,97.537,46.078"/>
	</g>
	<g>
		<defs>
			<polyline id="SVGID_43_" points="0,118.668 0,0 466.275,0 466.275,118.668 			"/>
		</defs>
		<clipPath id="SVGID_44_">
			<use xlink:href="#SVGID_43_"  overflow="visible"/>
		</clipPath>
		<path clip-path="url(#SVGID_44_)" fill="#004F89" d="M167.962,76.275c-3.999,0-7.73-0.688-11.088-2.047
			c-3.364-1.361-6.313-3.26-8.758-5.639c-2.455-2.384-4.404-5.281-5.796-8.615c-1.396-3.326-2.102-6.978-2.102-10.848
			c0-3.925,0.672-7.589,1.996-10.889c1.326-3.293,3.188-6.191,5.536-8.609c2.356-2.423,5.156-4.322,8.321-5.649
			c3.168-1.331,6.668-2.003,10.4-2.003c3.948,0,7.484,0.783,10.505,2.325c2.254,1.153,4.164,2.508,5.704,4.039V6.069
			c0-2.03,0.615-3.574,1.826-4.589C185.679,0.497,187.34,0,189.442,0c1.263,0,2.444,0.162,3.509,0.481
			c1.031,0.311,1.713,0.534,2.059,0.672l0.501,0.199v45.387c0,4.91-0.704,9.255-2.09,12.916c-1.397,3.672-3.352,6.775-5.802,9.229
			c-2.451,2.451-5.391,4.32-8.74,5.552C175.555,75.657,171.881,76.275,167.962,76.275 M168.161,33.713
			c-2.196,0-4.194,0.396-5.939,1.175c-1.751,0.782-3.289,1.859-4.571,3.203c-1.28,1.342-2.274,2.973-2.96,4.846
			c-0.694,1.883-1.045,3.964-1.045,6.191c0,2.225,0.351,4.287,1.043,6.134c0.686,1.849,1.682,3.462,2.962,4.803
			c1.282,1.345,2.82,2.422,4.571,3.2c3.427,1.54,8.224,1.572,11.848,0.048c1.777-0.746,3.309-1.789,4.557-3.099
			c1.247-1.312,2.244-2.93,2.962-4.807c0.727-1.888,1.094-4.001,1.094-6.279c0-2.145-0.367-4.191-1.094-6.081
			c-0.718-1.879-1.721-3.534-2.976-4.92c-1.25-1.37-2.782-2.459-4.553-3.237C172.276,34.109,170.293,33.713,168.161,33.713"/>
	</g>
	<g>
		<defs>
			<polyline id="SVGID_45_" points="0,118.668 0,0 466.275,0 466.275,118.668 			"/>
		</defs>
		<clipPath id="SVGID_46_">
			<use xlink:href="#SVGID_45_"  overflow="visible"/>
		</clipPath>
		<path clip-path="url(#SVGID_46_)" fill="#004F89" d="M216.471,74.885h-12.931V29.438c0-2.107,0.641-3.672,1.9-4.656
			c1.197-0.937,2.867-1.414,4.965-1.414c1.264,0,2.445,0.164,3.51,0.486c1.021,0.306,1.707,0.532,2.05,0.666l0.506,0.196V74.885
			L216.471,74.885z"/>
	</g>
	<g>
		<defs>
			<polyline id="SVGID_47_" points="0,118.668 0,0 466.275,0 466.275,118.668 			"/>
		</defs>
		<clipPath id="SVGID_48_">
			<use xlink:href="#SVGID_47_"  overflow="visible"/>
		</clipPath>
		<path clip-path="url(#SVGID_48_)" fill="#004F89" d="M250.659,76.275c-5.218,0-9.554-0.461-12.89-1.369
			c-3.369-0.92-6.074-2.174-8.04-3.726c-2.001-1.577-3.394-3.438-4.137-5.525c-0.723-2.038-1.092-4.15-1.092-6.284
			c0-2.814,0.439-5.322,1.306-7.46c0.883-2.186,2.343-4.041,4.34-5.513c1.968-1.448,4.561-2.547,7.702-3.267
			c3.092-0.708,6.897-1.065,11.316-1.065c2.494,0,4.925,0.084,7.221,0.25c1.727,0.129,3.123,0.247,4.195,0.355
			c-0.086-1.793-0.435-3.311-1.043-4.526c-0.689-1.388-1.65-2.489-2.851-3.269c-1.231-0.796-2.738-1.358-4.481-1.671
			c-1.807-0.321-3.836-0.486-6.024-0.486c-3.656,0-6.625,0.417-8.819,1.242c-2.204,0.833-3.649,1.525-4.298,2.058l-0.507,0.417
			l-0.505-0.422c-0.456-0.377-1.035-1.039-1.771-2.024c-0.796-1.063-1.202-2.358-1.202-3.854c0-1.063,0.283-2.114,0.843-3.124
			c0.573-1.028,1.566-1.934,2.948-2.696c1.324-0.732,3.111-1.314,5.31-1.727c2.174-0.406,4.933-0.61,8.201-0.61
			c3.954,0,7.61,0.391,10.872,1.167c3.3,0.781,6.186,2.044,8.584,3.757c2.424,1.73,4.332,4.041,5.677,6.867
			c1.337,2.82,2.017,6.246,2.017,10.188v30.586l-0.642,0.129c-0.679,0.134-1.74,0.284-3.195,0.455
			c-1.434,0.164-3.116,0.333-5.045,0.501c-1.931,0.163-4.094,0.315-6.49,0.447C255.775,76.208,253.253,76.275,250.659,76.275
			 M249.564,51.614c-4.332,0-7.497,0.642-9.406,1.907c-1.835,1.212-2.727,3.091-2.727,5.748c0,1.081,0.195,2.081,0.581,2.966
			c0.364,0.845,1.019,1.581,1.941,2.188c0.977,0.64,2.338,1.136,4.048,1.478c1.755,0.351,3.995,0.528,6.656,0.528
			c3,0,5.409-0.112,7.156-0.341c1.287-0.167,2.242-0.303,2.886-0.413V52.476c-0.704-0.122-1.721-0.28-3.049-0.471
			C255.877,51.744,253.156,51.614,249.564,51.614"/>
	</g>
	<g>
		<defs>
			<polyline id="SVGID_49_" points="0,118.668 0,0 466.275,0 466.275,118.668 			"/>
		</defs>
		<clipPath id="SVGID_50_">
			<use xlink:href="#SVGID_49_"  overflow="visible"/>
		</clipPath>
		<path clip-path="url(#SVGID_50_)" fill="#004F89" d="M345.406,74.885h-12.931V29.438c0-2.107,0.641-3.672,1.9-4.656
			c1.196-0.937,2.866-1.414,4.965-1.414c1.264,0,2.444,0.164,3.51,0.486c1.021,0.306,1.707,0.532,2.05,0.666l0.506,0.196V74.885z"/>
	</g>
	<g>
		<defs>
			<polyline id="SVGID_51_" points="0,118.668 0,0 466.275,0 466.275,118.668 			"/>
		</defs>
		<clipPath id="SVGID_52_">
			<use xlink:href="#SVGID_51_"  overflow="visible"/>
		</clipPath>
		<path clip-path="url(#SVGID_52_)" fill="#004F89" d="M403.557,74.885H390.63V46.841c0-4.281-1.033-7.56-3.068-9.748
			c-2.021-2.177-5.068-3.277-9.064-3.277c-4.056,0-7.121,1.1-9.104,3.27c-2.008,2.193-3.025,5.474-3.025,9.755v28.044h-12.929
			V43.957c0-3.418,0.646-6.525,1.917-9.239c1.269-2.707,3.042-5.04,5.279-6.93c2.214-1.879,4.879-3.335,7.923-4.33
			c3.028-0.982,6.374-1.479,9.939-1.479c3.573,0,6.934,0.497,9.988,1.479c3.075,0.991,5.756,2.448,7.979,4.33
			c2.235,1.892,3.996,4.227,5.233,6.938c1.233,2.706,1.859,5.811,1.859,9.231V74.885z"/>
	</g>
	<g>
		<defs>
			<polyline id="SVGID_53_" points="0,118.668 0,0 466.275,0 466.275,118.668 			"/>
		</defs>
		<clipPath id="SVGID_54_">
			<use xlink:href="#SVGID_53_"  overflow="visible"/>
		</clipPath>
		<path clip-path="url(#SVGID_54_)" fill="#004F89" d="M438.728,76.275c-3.999,0-7.729-0.688-11.088-2.047
			c-3.367-1.361-6.314-3.26-8.758-5.639c-2.457-2.384-4.404-5.284-5.796-8.615c-1.396-3.326-2.104-6.978-2.104-10.848
			c0-3.925,0.673-7.589,1.997-10.889c1.326-3.293,3.188-6.191,5.538-8.609c2.353-2.421,5.152-4.322,8.319-5.649
			c3.168-1.331,6.668-2.003,10.398-2.003c3.949,0,7.485,0.783,10.505,2.325c2.254,1.153,4.164,2.508,5.705,4.039V6.069
			c0-2.03,0.615-3.574,1.826-4.589c1.171-0.983,2.832-1.48,4.935-1.48c1.264,0,2.441,0.162,3.508,0.481
			c1.032,0.311,1.715,0.534,2.06,0.672l0.501,0.199v45.387c0,4.91-0.703,9.255-2.089,12.916c-1.399,3.672-3.35,6.775-5.804,9.229
			c-2.449,2.451-5.388,4.32-8.738,5.552C446.32,75.657,442.646,76.275,438.728,76.275 M438.927,33.713
			c-2.194,0-4.194,0.396-5.94,1.175c-1.753,0.782-3.291,1.859-4.57,3.203c-1.279,1.342-2.275,2.975-2.959,4.846
			c-0.694,1.887-1.049,3.968-1.049,6.191c0,2.223,0.354,4.285,1.043,6.134c0.688,1.847,1.684,3.46,2.965,4.803
			c1.279,1.345,2.817,2.422,4.568,3.203c3.432,1.537,8.23,1.569,11.852,0.045c1.773-0.746,3.307-1.789,4.557-3.099
			c1.247-1.314,2.246-2.932,2.96-4.807c0.729-1.888,1.096-4.001,1.096-6.279c0-2.145-0.366-4.191-1.094-6.081
			c-0.718-1.875-1.719-3.532-2.976-4.922c-1.25-1.368-2.782-2.457-4.555-3.235C443.045,34.109,441.057,33.713,438.927,33.713"/>
	</g>
	<g>
		<defs>
			<polyline id="SVGID_55_" points="0,118.668 0,0 466.275,0 466.275,118.668 			"/>
		</defs>
		<clipPath id="SVGID_56_">
			<use xlink:href="#SVGID_55_"  overflow="visible"/>
		</clipPath>
		<path clip-path="url(#SVGID_56_)" fill="#004F89" d="M317.566,75.504c-1.761,0-3.521-0.672-4.863-2.014l-29.125-29.125
			c-2.687-2.688-2.687-7.043,0-9.729l29.125-29.125c2.687-2.683,7.041-2.683,9.728,0c2.688,2.688,2.688,7.043,0,9.731L298.174,39.5
			l24.257,24.26c2.688,2.688,2.688,7.041,0,9.73C321.089,74.832,319.327,75.504,317.566,75.504"/>
	</g>
	<g>
		<defs>
			<polyline id="SVGID_57_" points="0,118.668 0,0 466.275,0 466.275,118.668 			"/>
		</defs>
		<clipPath id="SVGID_58_">
			<use xlink:href="#SVGID_57_"  overflow="visible"/>
		</clipPath>
		<path clip-path="url(#SVGID_58_)" fill="#E40138" d="M287.201,3.475c1.924,0,3.549,0.662,4.873,1.987
			c1.324,1.328,1.988,2.951,1.988,4.874s-0.664,3.548-1.988,4.875c-1.324,1.326-2.949,1.988-4.873,1.988
			c-1.923,0-3.548-0.662-4.873-1.988c-1.325-1.327-1.987-2.952-1.987-4.875s0.662-3.546,1.987-4.874
			C283.653,4.137,285.278,3.475,287.201,3.475"/>
	</g>
	<g>
		<defs>
			<polyline id="SVGID_59_" points="0,118.668 0,0 466.275,0 466.275,118.668 			"/>
		</defs>
		<clipPath id="SVGID_60_">
			<use xlink:href="#SVGID_59_"  overflow="visible"/>
		</clipPath>
		<path clip-path="url(#SVGID_60_)" fill="#004F89" d="M71.989,4.036c-2.567-1.065-5.527-0.475-7.495,1.492L32.967,37.055
			L20.675,24.761c-0.008-0.006-0.016-0.01-0.021-0.017l-8.916-8.917c-2.687-2.684-7.042-2.684-9.727,0
			C0.656,17.182-0.012,18.963,0,20.74v48.658c0,3.799,3.081,6.879,6.877,6.879c3.799,0,6.877-3.08,6.877-6.879V37.296l5.413,5.412
			c0.006,0.007,0.013,0.009,0.019,0.015l8.921,8.92c2.685,2.684,7.037,2.684,9.725,0l24.65-24.652v42.407
			c0,3.799,3.078,6.879,6.877,6.879c3.798,0,6.877-3.08,6.877-6.879V10.39C76.235,7.608,74.558,5.101,71.989,4.036"/>
	</g>
</g>
</svg>
